<svg width="21" height="21" viewBox="0 0 21 21" fill="none" xmlns="http://www.w3.org/2000/svg">
<path fill-rule="evenodd" clip-rule="evenodd" d="M8 0H12.24C14.3617 0 16.3966 0.842855 17.8969 2.34315C19.3971 3.84344 20.24 5.87827 20.24 8V12.24C20.24 16.6583 16.6583 20.24 12.24 20.24H8C3.58172 20.24 0 16.6583 0 12.24V8C0 3.58172 3.58172 0 8 0ZM10.12 16.12C10.6723 16.12 11.12 15.6723 11.12 15.12V10.12C11.1215 9.8542 11.0172 9.59872 10.83 9.41L6.83 5.41C6.57634 5.15634 6.20663 5.05728 5.86012 5.15012C5.51362 5.24297 5.24297 5.51362 5.15012 5.86012C5.05728 6.20663 5.15634 6.57634 5.41 6.83L9.12 10.53V15.12C9.12 15.6723 9.56771 16.12 10.12 16.12Z" fill="black"/>
</svg>
