<svg width="169" height="217" viewBox="0 0 169 217" fill="none" xmlns="http://www.w3.org/2000/svg">
<rect y="60.2103" width="41.0526" height="156" fill="#F7F9FC"/>
<path d="M0.00113678 63.2895C0.00113678 71.6008 1.63817 79.8307 4.81876 87.5093C7.99935 95.188 12.6612 102.165 18.5382 108.042C24.4152 113.919 31.3921 118.581 39.0708 121.761C46.7494 124.942 54.9793 126.579 63.2906 126.579L63.2906 101.263C58.3038 101.263 53.3659 100.281 48.7587 98.3726C44.1515 96.4643 39.9653 93.6671 36.4392 90.141C32.913 86.6148 30.1159 82.4286 28.2075 77.8214C26.2991 73.2142 25.3169 68.2763 25.3169 63.2895L0.00113678 63.2895Z" fill="#F7F9FC"/>
<circle cx="22.2367" cy="31.1313" r="18.8158" fill="#F7F9FC"/>
<rect x="126.58" y="60.2102" width="41.0526" height="156" fill="#F7F9FC"/>
<path d="M103.658 126.579C120.443 126.579 136.541 119.911 148.41 108.042C160.28 96.1728 166.948 80.0749 166.948 63.2895L141.632 63.2895C141.632 73.3608 137.631 83.0195 130.509 90.141C123.388 97.2624 113.729 101.263 103.658 101.263L103.658 126.579Z" fill="#F7F9FC"/>
<circle cx="150.184" cy="31.1313" r="18.8158" fill="#F7F9FC"/>
<path d="M92.8376 106.951C92.336 106.449 91.7405 106.051 91.0851 105.779C90.4297 105.508 89.7272 105.368 89.0177 105.368C88.3082 105.368 87.6057 105.508 86.9503 105.779C86.2949 106.051 85.6994 106.449 85.1978 106.951L84.1569 107.992L83.116 106.951C82.103 105.938 80.7289 105.369 79.2962 105.369C77.8634 105.369 76.4894 105.938 75.4763 106.951C74.4632 107.964 73.894 109.338 73.894 110.771C73.894 112.203 74.4632 113.577 75.4763 114.591L76.5172 115.631L84.1569 123.271L91.7967 115.631L92.8376 114.591C93.3394 114.089 93.7374 113.494 94.009 112.838C94.2806 112.183 94.4204 111.48 94.4204 110.771C94.4204 110.061 94.2806 109.359 94.009 108.703C93.7374 108.048 93.3394 107.452 92.8376 106.951Z" fill="#F7F9FC" stroke="#F7F9FC" stroke-width="2" stroke-linecap="round" stroke-linejoin="round"/>
</svg>
