<svg width="24" height="24" viewBox="0 0 24 24" fill="none" xmlns="http://www.w3.org/2000/svg">
<path fill-rule="evenodd" clip-rule="evenodd" d="M4.56796 18.2849C5.71196 18.7239 6.97996 18.9019 6.99396 18.9039C7.02296 18.9089 8.26696 19.1119 10.425 18.7829C12.55 18.4589 14.383 17.0799 14.401 17.0659C14.464 17.0249 15.839 16.1849 17.326 13.6689C18.806 11.1639 18.553 8.33188 18.55 8.30388C18.535 8.14588 18.594 7.99088 18.712 7.88488C18.712 7.88488 19.018 7.60488 19.426 7.27188C19.145 7.32288 18.9 7.35888 18.852 7.36588C18.62 7.39488 18.406 7.27388 18.318 7.06388C18.231 6.85288 18.296 6.60988 18.478 6.47188C18.484 6.46888 18.784 6.23988 19.154 5.91888C18.618 6.09988 18.162 6.18288 18.135 6.18788C17.919 6.22188 17.71 6.12288 17.609 5.93488C17.612 5.96088 17.439 5.79888 16.828 5.39088C16.235 4.99588 15.211 4.97988 14.867 5.00788C14.867 5.00788 13.455 5.18388 12.593 6.38388C11.738 7.57288 12.086 8.99788 12.089 9.01288C12.13 9.16988 12.091 9.33688 11.986 9.46088C11.881 9.58388 11.718 9.64488 11.562 9.63588L10.625 9.55488C10.441 9.54088 9.40696 9.36388 8.35796 8.99288C7.30596 8.62188 6.67796 8.23588 5.80896 7.70288C5.22796 7.34688 4.45896 6.60188 3.95396 6.08388C3.79896 6.56688 3.67896 7.28088 3.92996 8.04388C4.33496 9.27988 5.21196 9.79388 5.21996 9.79888C5.40796 9.90188 5.50796 10.1139 5.46996 10.3249C5.43196 10.5359 5.26396 10.6989 5.05096 10.7299C4.95296 10.7479 4.70396 10.7529 4.15396 10.6389C4.04896 10.6179 3.94596 10.5919 3.84896 10.5609C3.93896 10.9499 4.15096 11.5389 4.64896 12.0559C5.47496 12.9159 6.31096 13.0249 6.34596 13.0289C6.59196 13.0579 6.78196 13.2639 6.78896 13.5119C6.79596 13.7599 6.62296 13.9739 6.37996 14.0179C6.37996 14.0179 5.80996 14.1199 5.45296 14.1549C5.43696 14.1559 5.42096 14.1579 5.40396 14.1589C5.43396 14.2079 5.46496 14.2569 5.49596 14.3039C5.50496 14.3189 5.97096 15.0499 6.74896 15.3929C7.53696 15.7399 8.06796 15.7119 8.07196 15.7099C8.29496 15.6909 8.49796 15.8249 8.57596 16.0299C8.65396 16.2359 8.59196 16.4679 8.41796 16.6019C8.38096 16.6319 7.49196 17.3149 5.99896 17.9269C5.53496 18.1159 5.04296 18.2259 4.56796 18.2849ZM8.10996 19.9719C7.31096 19.9719 6.86996 19.8969 6.83896 19.8909C6.79296 19.8859 5.25796 19.6699 3.93896 19.1089C1.90296 18.2459 1.96196 17.9579 2.01896 17.6799C2.06996 17.4289 2.36196 17.2469 2.61796 17.2859C3.75796 17.4199 4.85196 17.3149 5.61996 17.0009C6.05496 16.8229 6.43496 16.6379 6.75096 16.4679C6.62196 16.4229 6.48696 16.3699 6.34596 16.3079C5.27696 15.8369 4.67596 14.8799 4.65096 14.8389C4.54296 14.6729 4.26896 14.2359 4.19096 13.9799C4.11796 13.7379 4.11096 13.7089 4.11096 13.7089C4.07496 13.5429 4.12496 13.3649 4.24396 13.2449C4.27996 13.2079 4.32196 13.1779 4.36696 13.1529C4.22096 13.0349 4.07396 12.9009 3.92796 12.7499C2.82696 11.6039 2.78496 10.2259 2.78396 10.1679L2.76496 9.78788C2.75596 9.60288 2.84996 9.42888 3.00896 9.33388C3.12796 9.26288 3.26996 9.24688 3.39996 9.28188C3.24096 9.01588 3.09496 8.70888 2.97996 8.35488C2.37996 6.53088 3.33896 4.98988 3.38096 4.92588C3.46396 4.79288 3.60496 4.70788 3.75996 4.69488C3.91796 4.68088 4.06896 4.74188 4.17396 4.85788C4.54896 5.27488 5.66896 6.44388 6.33196 6.84988C7.17896 7.37088 7.73896 7.71388 8.69096 8.04988C9.66996 8.39588 10.611 8.54988 10.703 8.55788L11.024 8.58588C10.981 7.89988 11.059 6.80388 11.781 5.79988C12.91 4.22888 14.698 4.01988 14.774 4.01288C14.85 4.00488 16.377 3.88888 17.383 4.55888C17.79 4.83088 18.043 5.01788 18.203 5.15088C18.486 5.08488 18.968 4.95288 19.385 4.74788L20.23 4.33088C20.409 4.23888 20.625 4.26488 20.779 4.39688C20.932 4.52788 20.991 4.73788 20.931 4.92988C20.906 5.00388 20.747 5.48388 20.463 5.94088C20.639 5.87188 20.772 5.81588 20.774 5.81488C20.98 5.73288 21.215 5.79088 21.355 5.96188C21.494 6.13488 21.503 6.37788 21.378 6.55988C21.311 6.65788 20.705 7.52888 20.197 7.93488C19.94 8.14088 19.711 8.33688 19.562 8.46688C19.598 9.27888 19.581 11.8179 18.188 14.1769C16.553 16.9439 15.021 17.8579 14.957 17.8949C14.925 17.9239 12.96 19.4079 10.576 19.7709C9.55696 19.9279 8.72696 19.9719 8.10996 19.9719Z" fill="#F7F9FC"/>
</svg>
