<svg width="23" height="23" viewBox="0 0 23 23" fill="none" xmlns="http://www.w3.org/2000/svg">
<path d="M11.12 11.87C11.5342 11.87 11.87 11.5342 11.87 11.12C11.87 10.7058 11.5342 10.37 11.12 10.37C10.7058 10.37 10.37 10.7058 10.37 11.12C10.37 11.5342 10.7058 11.87 11.12 11.87Z" fill="black"/>
<path fill-rule="evenodd" clip-rule="evenodd" d="M13.4495 0H8.79051C3.93565 0 0 3.93565 0 8.79051V13.4495C0 18.3044 3.93565 22.24 8.79051 22.24H13.4495C18.3044 22.24 22.24 18.3044 22.24 13.4495V8.79051C22.24 6.45912 21.3139 4.22322 19.6653 2.57468C18.0168 0.926141 15.7809 0 13.4495 0ZM15.3175 8.25209L14.0648 13.3176C13.9668 13.713 13.6581 14.0217 13.2627 14.1198L8.25208 15.3175C7.87869 15.4094 7.48443 15.2994 7.21252 15.0275C6.94061 14.7556 6.83063 14.3613 6.92252 13.9879L8.17517 8.97731C8.27319 8.58192 8.58191 8.2732 8.9773 8.17518L13.9879 6.92253C14.3613 6.83063 14.7556 6.94062 15.0275 7.21253C15.2994 7.48443 15.4094 7.8787 15.3175 8.25209Z" fill="black"/>
</svg>
